<svg id="e0523f66-6c11-4ae6-935a-9600a228fd38" data-name="Capa 6" xmlns="http://www.w3.org/2000/svg" xmlns:xlink="http://www.w3.org/1999/xlink" viewBox="0 0 340.17 110.57"><defs><style>.b394a9cd-ebd5-4e21-8379-17ef187e7eb8{fill:url(#a0052120-ad90-43f3-b2f7-59cbc893044b);}.a8ebbfea-c5da-4390-8656-d8c29c869752{fill-rule:evenodd;fill:url(#b8556561-05ac-40eb-b145-ae2411e6f940);}.bf19c77c-2adf-4e09-ae6e-8353d14edd94{fill:#1d1d1b;}</style><linearGradient id="a0052120-ad90-43f3-b2f7-59cbc893044b" y1="42.2" x2="42.15" y2="42.2" gradientUnits="userSpaceOnUse"><stop offset="0" stop-color="#d0d0d0"/><stop offset="0.18" stop-color="#c9c8c8"/><stop offset="0.7" stop-color="#1d1d1b"/></linearGradient><linearGradient id="b8556561-05ac-40eb-b145-ae2411e6f940" x1="17.88" y1="53.81" x2="134.93" y2="53.81" xlink:href="#a0052120-ad90-43f3-b2f7-59cbc893044b"/></defs><title>LOGO FINAL SANDRO</title><path class="b394a9cd-ebd5-4e21-8379-17ef187e7eb8" d="M19.21,82.07a3.65,3.65,0,0,1-1.16-2.37c0-.87.4-.94.66-2.42a13.05,13.05,0,0,0,.11-2.49c0-1.36-.1-1.59-.22-1.76-.3-.42-.57-.26-1.43-.9s-.91-1-.94-1.16a1.67,1.67,0,0,1,.05-.78c.36-1.43,1-1.68.94-2.25-.11-.82-1.6-.3-1.82-1.76a2,2,0,0,1,.33-1.51,9.21,9.21,0,0,0,.77-1.33,3.09,3.09,0,0,0,.3-2.75,4.7,4.7,0,0,0-1.65-1.3,7.08,7.08,0,0,0-1.79-.8c-.09,0-2-.77-2.32-2.13a2.86,2.86,0,0,1,.66-2.06c2.24-3.22,5.05-6.51,6.9-9.39a8.94,8.94,0,0,0,1.77-4.55c.05-1.23-.3-28,13.69-35.62,4.24-2.31,8.45-3.25,8.07-3.4C41.08.94,28.44,1.12,21,7.45,7.41,19.09,9.42,39.21,9.36,40.44A8.85,8.85,0,0,1,7.59,45c-4.35,6.78-2.68,3.33-6.9,9.39A2.86,2.86,0,0,0,0,56.44c.28,1.36,2.23,2.09,2.32,2.13a8.35,8.35,0,0,1,3.3,1.81,3.11,3.11,0,0,1-.15,3c-.36.48-.52,1-.78,1.33a2,2,0,0,0-.33,1.51c.22,1.46,1.71.94,1.82,1.76.08.57-.58.82-.93,2.25a1.57,1.57,0,0,0-.06.78c0,.17.16.57.94,1.16s1.14.48,1.43.9c.12.17.22.4.22,1.76a13.05,13.05,0,0,1-.11,2.49C7.44,78.84,7,78.91,7,79.78A3.68,3.68,0,0,0,8.2,82.15a4.58,4.58,0,0,0,3.48,1,48.9,48.9,0,0,0,7.75-.93C19.36,82.19,19.28,82.14,19.21,82.07Z"/><path class="a8ebbfea-c5da-4390-8656-d8c29c869752" d="M48.74,107.61c-4.35-23.72-1.26-28.7-21.37-26.4-5.78.66-2.63-6-2.18-6.8s.85-3.21-1.4-3.91.85-4.23.85-4.23c-.8-.35-3-1-2-2.1,2.55-2.75.82-4.17.82-4.17a9.12,9.12,0,0,0-3.07-2c-3.57-1.5-2.73-3.77-.86-5.76A76.4,76.4,0,0,0,25,45.05c2.84-4.78,2-6.93,1.8-8.72a14.91,14.91,0,0,1-.09-2.67c.69-9.92,3.45-19,9.43-23.84C43.43,4,53.65,2.43,53.65,2.43c50.41-12.29,81.28,26,81.28,26S110.12,3,88.78,7.12c0,0,20.42,3.83,33.75,18.73,0,0-24.75-22.22-43.89-9.93C71.1,20.76,66.58,26.91,51,30.85c0,0,28.54-1.49,42.81-14.31l-9.08,9.72s30-10.2,45.73,22.49c0,0-17.27-31.26-60.37-7.39,0,0,34.46-9.1,52.79,9.52,0,0-21.48-9.1-45-3.73,0,0-8.61.62-20.56,9.13,0,0,3.8,2.41,15.74,4.32a87.33,87.33,0,0,0,38.34-4.55s-7.75,7.05-33.89,12.62c0,0,35.12,15.17,57-.41,0,0-14,14.48-47,9.1s-38,21.93-38,21.93"/><path class="bf19c77c-2adf-4e09-ae6e-8353d14edd94" d="M170.22,34.11a6.11,6.11,0,0,1-2.9.72c-2.39,0-4.51-1.68-6.34-5l-2.6,1.55a13.55,13.55,0,0,0,4.18,4.94,9,9,0,0,0,5.06,1.48,8.49,8.49,0,0,0,6.14-2.44,7.68,7.68,0,0,0,2.53-5.74A8.29,8.29,0,0,0,174.81,25a22.12,22.12,0,0,0-5.45-5.18c-2.23-1.63-3.55-2.65-4-3a7.23,7.23,0,0,1-1.52-2,4.61,4.61,0,0,1-.41-1.92,3.64,3.64,0,0,1,1.17-2.75,4.22,4.22,0,0,1,3-1.11,5.1,5.1,0,0,1,2.65.72,11.94,11.94,0,0,1,2.94,3l2.5-1.88a14,14,0,0,0-4-3.91,8.11,8.11,0,0,0-4-1.06,7.72,7.72,0,0,0-3.77.94,6.82,6.82,0,0,0-2.7,2.57,7,7,0,0,0-1,3.61,7.54,7.54,0,0,0,1.63,4.64,26.17,26.17,0,0,0,4.76,4.15,24.84,24.84,0,0,1,5.24,4.87,5.1,5.1,0,0,1,1,3,4.94,4.94,0,0,1-.7,2.54A5.13,5.13,0,0,1,170.22,34.11Z"/><path class="bf19c77c-2adf-4e09-ae6e-8353d14edd94" d="M188.23,27h13.19l4.81,10h3.3L195.26,6.65h-.75L180.06,37h3.41Zm6.65-13.93,5.21,11H189.63Z"/><polygon class="bf19c77c-2adf-4e09-ae6e-8353d14edd94" points="217.46 14.02 237.66 37.01 238.34 37.01 238.34 6.65 235.33 6.65 235.33 29.93 214.96 6.65 214.3 6.65 214.3 37.01 217.46 37.01 217.46 14.02"/><path class="bf19c77c-2adf-4e09-ae6e-8353d14edd94" d="M264.42,35.36a12.7,12.7,0,0,0,5.16-5.12,15.87,15.87,0,0,0,2-8,16.24,16.24,0,0,0-2.5-9.11,13.3,13.3,0,0,0-7-5.36q-3.11-1.1-10-1.1h-6.35V37h9.74Q261.24,37,264.42,35.36Zm-15.7-1.21V9.63h2.17a36.29,36.29,0,0,1,9.46.86,10.83,10.83,0,0,1,6,4.27,12.93,12.93,0,0,1,2.15,7.51,12.24,12.24,0,0,1-2,7.08,10.15,10.15,0,0,1-5.43,4c-1.64.52-4.57.79-8.8.79Z"/><path class="bf19c77c-2adf-4e09-ae6e-8353d14edd94" d="M280.72,22.92h1.73l11,14.09h3.78l-11-14.09a15.63,15.63,0,0,0,6-1,7.26,7.26,0,0,0,3.36-2.85,8,8,0,0,0,1.18-4.36,7.54,7.54,0,0,0-1.71-5,7.9,7.9,0,0,0-4.43-2.65,36.69,36.69,0,0,0-6.91-.42h-6.09V37h3.06Zm0-13.29h5.39a13.35,13.35,0,0,1,4.5.53A4.62,4.62,0,0,1,292.8,12a4.86,4.86,0,0,1,.84,2.77,5.08,5.08,0,0,1-.83,2.84,4.72,4.72,0,0,1-2.29,1.85A13.32,13.32,0,0,1,286,20l-5.27,0Z"/><path class="bf19c77c-2adf-4e09-ae6e-8353d14edd94" d="M318.17,37.78a15.57,15.57,0,0,0,11.4-4.65,15.34,15.34,0,0,0,4.67-11.31,15.28,15.28,0,0,0-4.68-11.33,15.93,15.93,0,0,0-11.64-4.6A15.75,15.75,0,0,0,310,8a15.42,15.42,0,0,0-5.82,5.85A16.08,16.08,0,0,0,302,22a15.14,15.14,0,0,0,4.68,11.18A15.69,15.69,0,0,0,318.17,37.78Zm-11.3-22.45a13.1,13.1,0,0,1,11.19-6.49,13,13,0,0,1,6.54,1.76,12.57,12.57,0,0,1,6.48,11.21,13.09,13.09,0,0,1-1.7,6.61,12.25,12.25,0,0,1-4.73,4.69,13.1,13.1,0,0,1-6.59,1.72,12.54,12.54,0,0,1-9.12-3.73A12.35,12.35,0,0,1,305.16,22,13,13,0,0,1,306.87,15.33Z"/><polygon class="bf19c77c-2adf-4e09-ae6e-8353d14edd94" points="158.75 82.96 161.81 82.96 161.81 68.06 174.08 68.06 174.08 65.08 161.81 65.08 161.81 55.57 174.08 55.57 174.08 52.6 158.75 52.6 158.75 82.96"/><polygon class="bf19c77c-2adf-4e09-ae6e-8353d14edd94" points="186.65 52.6 186.65 82.96 201.48 82.96 201.48 80.03 189.7 80.03 189.7 52.6 186.65 52.6"/><path class="bf19c77c-2adf-4e09-ae6e-8353d14edd94" d="M239.78,56.44a16,16,0,0,0-11.64-4.61,15.72,15.72,0,0,0-8,2.12,15.42,15.42,0,0,0-5.82,5.85,16.08,16.08,0,0,0-2.13,8.11A15.14,15.14,0,0,0,216.9,79.1a16.46,16.46,0,0,0,22.89,0,16,16,0,0,0,0-22.64Zm-.18,17.93a12.39,12.39,0,0,1-4.73,4.69,13.2,13.2,0,0,1-6.6,1.71A12.49,12.49,0,0,1,219.16,77a12.33,12.33,0,0,1-3.78-9.14,13,13,0,0,1,1.71-6.63,13.1,13.1,0,0,1,11.18-6.49,13.06,13.06,0,0,1,6.55,1.76,12.64,12.64,0,0,1,4.78,4.68,12.81,12.81,0,0,1,1.7,6.54A13.15,13.15,0,0,1,239.6,74.37Z"/><path class="bf19c77c-2adf-4e09-ae6e-8353d14edd94" d="M272.61,67.88A7.4,7.4,0,0,0,276,65a8.1,8.1,0,0,0,1.17-4.36,7.54,7.54,0,0,0-1.7-5A7.89,7.89,0,0,0,271,53a37.88,37.88,0,0,0-6.91-.41H258V83h3.06V68.86h1.73l11,14.1h3.78l-11-14.1A15.53,15.53,0,0,0,272.61,67.88Zm-11.55-2V55.57h5.4a13.29,13.29,0,0,1,4.5.54,4.63,4.63,0,0,1,2.19,1.78,4.93,4.93,0,0,1,.83,2.78,5.12,5.12,0,0,1-.82,2.84,4.74,4.74,0,0,1-2.29,1.84,13.1,13.1,0,0,1-4.54.58Z"/><polygon class="bf19c77c-2adf-4e09-ae6e-8353d14edd94" points="290.96 82.96 308.37 82.96 308.37 79.98 294.02 79.98 294.02 68.06 308.37 68.06 308.37 65.08 294.02 65.08 294.02 55.57 308.5 55.57 308.5 52.6 290.96 52.6 290.96 82.96"/><polygon class="bf19c77c-2adf-4e09-ae6e-8353d14edd94" points="319.83 52.6 319.83 55.53 331.36 55.53 318.46 82.96 335.33 82.96 335.33 79.98 323.19 79.98 335.98 52.6 319.83 52.6"/><polygon class="bf19c77c-2adf-4e09-ae6e-8353d14edd94" points="162.51 89.43 159.5 95.5 156.48 89.43 156.35 89.43 155.29 96.83 156.01 96.83 156.74 91.5 159.41 96.83 159.6 96.83 162.23 91.54 162.97 96.83 163.7 96.83 162.63 89.43 162.51 89.43"/><path class="bf19c77c-2adf-4e09-ae6e-8353d14edd94" d="M171.62,92.28a2.71,2.71,0,0,0-2.25-1.06,2.66,2.66,0,0,0-2.19,1,3,3,0,0,0,.12,3.84,2.63,2.63,0,0,0,2.11.88,2.86,2.86,0,0,0,1.09-.19,2.79,2.79,0,0,0,.87-.53,3.44,3.44,0,0,0,.68-.93l-.6-.31a3.53,3.53,0,0,1-.6.78,2.14,2.14,0,0,1-.68.38,2.33,2.33,0,0,1-.82.15,2,2,0,0,1-1.47-.61,2.23,2.23,0,0,1-.61-1.56h5A3,3,0,0,0,171.62,92.28Zm-4.28,1.26a2.41,2.41,0,0,1,.64-1.13,2,2,0,0,1,1.4-.52,2.19,2.19,0,0,1,.94.21,2,2,0,0,1,.72.54,2.43,2.43,0,0,1,.41.9Z"/><path class="bf19c77c-2adf-4e09-ae6e-8353d14edd94" d="M180.12,92.36a2.92,2.92,0,0,0-1-.86,2.59,2.59,0,0,0-1.23-.28,2.74,2.74,0,0,0-2,.84,2.78,2.78,0,0,0-.83,2,2.81,2.81,0,0,0,.83,2,2.68,2.68,0,0,0,2,.84,2.76,2.76,0,0,0,1.22-.27,3,3,0,0,0,1-.81v.94h.7V89.25h-.7Zm-.24,2.88a2,2,0,0,1-.8.79,2.26,2.26,0,0,1-1.1.29A2.13,2.13,0,0,1,176.9,96a2.2,2.2,0,0,1-.81-.82,2.33,2.33,0,0,1-.29-1.11,2.23,2.23,0,0,1,.29-1.1,2.15,2.15,0,0,1,.8-.81A2.07,2.07,0,0,1,178,91.9a2.1,2.1,0,0,1,1.55.63,2.34,2.34,0,0,1,.35,2.71Z"/><rect class="bf19c77c-2adf-4e09-ae6e-8353d14edd94" x="184.08" y="91.36" width="0.71" height="5.47"/><path class="bf19c77c-2adf-4e09-ae6e-8353d14edd94" d="M184.43,89.11a.54.54,0,0,0-.41.17.57.57,0,0,0-.17.41.58.58,0,0,0,.58.58.61.61,0,0,0,.42-.17.58.58,0,0,0,.17-.41.58.58,0,0,0-.59-.58Z"/><path class="bf19c77c-2adf-4e09-ae6e-8353d14edd94" d="M190.83,91.88a2.34,2.34,0,0,1,2,1l.57-.35a2.32,2.32,0,0,0-.61-.67,2.78,2.78,0,0,0-.86-.44,3.4,3.4,0,0,0-1.06-.16,3.28,3.28,0,0,0-1.57.38,2.83,2.83,0,0,0-1.11,1.06,2.86,2.86,0,0,0-.4,1.48,2.67,2.67,0,0,0,.86,2,3,3,0,0,0,2.17.83,3.4,3.4,0,0,0,1.52-.33,2.68,2.68,0,0,0,1.06-.91l-.57-.37a2.42,2.42,0,0,1-2,1,2.53,2.53,0,0,1-1.2-.29,2.28,2.28,0,0,1-.84-.82,2.24,2.24,0,0,1-.3-1.12,2.11,2.11,0,0,1,.66-1.57A2.36,2.36,0,0,1,190.83,91.88Z"/><rect class="bf19c77c-2adf-4e09-ae6e-8353d14edd94" x="196.4" y="91.36" width="0.71" height="5.47"/><path class="bf19c77c-2adf-4e09-ae6e-8353d14edd94" d="M196.75,89.11a.53.53,0,0,0-.41.17.57.57,0,0,0-.17.41.58.58,0,0,0,.17.41.58.58,0,0,0,.82,0,.54.54,0,0,0,.17-.41.58.58,0,0,0-.58-.58Z"/><path class="bf19c77c-2adf-4e09-ae6e-8353d14edd94" d="M204.22,91.53a2,2,0,0,0-1.1-.31,2.24,2.24,0,0,0-1.12.28,2.86,2.86,0,0,0-.95.84v-1h-.71v5.47h.71v-2a7.94,7.94,0,0,1,.1-1.49,2,2,0,0,1,.68-1,1.76,1.76,0,0,1,1.15-.42,1.45,1.45,0,0,1,.91.27,1.39,1.39,0,0,1,.47.82,5.79,5.79,0,0,1,.08,1.26v2.61h.71V94a4.22,4.22,0,0,0-.23-1.64A1.85,1.85,0,0,0,204.22,91.53Z"/><path class="bf19c77c-2adf-4e09-ae6e-8353d14edd94" d="M213.23,92.36a2.92,2.92,0,0,0-1-.86,2.59,2.59,0,0,0-1.23-.28,2.74,2.74,0,0,0-2,.84,2.78,2.78,0,0,0-.83,2,2.84,2.84,0,0,0,.82,2,2.72,2.72,0,0,0,2,.84,2.76,2.76,0,0,0,1.22-.27,3,3,0,0,0,1-.81v.94h.7V91.36h-.7ZM213,95.24a2.09,2.09,0,0,1-.8.79,2.29,2.29,0,0,1-1.1.29A2.13,2.13,0,0,1,210,96a2.2,2.2,0,0,1-.81-.82,2.33,2.33,0,0,1-.29-1.11A2.21,2.21,0,0,1,210,92.19a2.07,2.07,0,0,1,1.09-.29,2.1,2.1,0,0,1,1.55.63,2.34,2.34,0,0,1,.35,2.71Z"/><polygon class="bf19c77c-2adf-4e09-ae6e-8353d14edd94" points="222.04 96.83 226.28 96.83 226.28 96.1 222.79 96.1 222.79 93.2 226.28 93.2 226.28 92.47 222.79 92.47 222.79 90.16 226.31 90.16 226.31 89.43 222.04 89.43 222.04 96.83"/><path class="bf19c77c-2adf-4e09-ae6e-8353d14edd94" d="M230.67,93.72a2.85,2.85,0,0,1-.85-.58.76.76,0,0,1-.21-.51.69.69,0,0,1,.25-.53.83.83,0,0,1,.59-.22,1.65,1.65,0,0,1,1.11.54L232,92a2.24,2.24,0,0,0-1.53-.74,1.54,1.54,0,0,0-1.09.41,1.41,1.41,0,0,0-.43,1,1.38,1.38,0,0,0,.27.84,2.91,2.91,0,0,0,1,.76,3.18,3.18,0,0,1,.89.58.83.83,0,0,1-.1,1.18,1,1,0,0,1-.73.27,1.54,1.54,0,0,1-1.15-.61l-.44.5a1.89,1.89,0,0,0,.71.57,2.09,2.09,0,0,0,.91.21,1.66,1.66,0,0,0,1.2-.47,1.55,1.55,0,0,0,.47-1.14,1.39,1.39,0,0,0-.28-.86A3.13,3.13,0,0,0,230.67,93.72Z"/><polygon class="bf19c77c-2adf-4e09-ae6e-8353d14edd94" points="236.37 89.33 235.66 89.33 235.66 91.36 234.69 91.36 234.69 91.97 235.66 91.97 235.66 96.83 236.37 96.83 236.37 91.97 237.49 91.97 237.49 91.36 236.37 91.36 236.37 89.33"/><path class="bf19c77c-2adf-4e09-ae6e-8353d14edd94" d="M245.13,92.28a2.71,2.71,0,0,0-2.25-1.06,2.66,2.66,0,0,0-2.19,1,3,3,0,0,0,.12,3.84,2.63,2.63,0,0,0,2.11.88,2.86,2.86,0,0,0,1.09-.19,2.79,2.79,0,0,0,.87-.53,3.44,3.44,0,0,0,.68-.93L245,95a3.53,3.53,0,0,1-.6.78,2.14,2.14,0,0,1-.68.38,2.33,2.33,0,0,1-.82.15,2,2,0,0,1-1.47-.61,2.23,2.23,0,0,1-.61-1.56h5A3,3,0,0,0,245.13,92.28Zm-4.28,1.26a2.41,2.41,0,0,1,.64-1.13,2,2,0,0,1,1.4-.52,2.19,2.19,0,0,1,.94.21,1.94,1.94,0,0,1,.71.54,2.28,2.28,0,0,1,.42.9Z"/><polygon class="bf19c77c-2adf-4e09-ae6e-8353d14edd94" points="250.15 89.33 249.44 89.33 249.44 91.36 248.47 91.36 248.47 91.97 249.44 91.97 249.44 96.83 250.15 96.83 250.15 91.97 251.28 91.97 251.28 91.36 250.15 91.36 250.15 89.33"/><path class="bf19c77c-2adf-4e09-ae6e-8353d14edd94" d="M254.35,89.11a.54.54,0,0,0-.41.17.57.57,0,0,0-.17.41.58.58,0,0,0,.58.58.57.57,0,0,0,.41-.17.54.54,0,0,0,.17-.41.58.58,0,0,0-.58-.58Z"/><rect class="bf19c77c-2adf-4e09-ae6e-8353d14edd94" x="254" y="91.36" width="0.71" height="5.47"/><path class="bf19c77c-2adf-4e09-ae6e-8353d14edd94" d="M260.74,91.88a2.36,2.36,0,0,1,2,1l.56-.35a2.16,2.16,0,0,0-.6-.67,2.9,2.9,0,0,0-.86-.44,3.4,3.4,0,0,0-1.06-.16,3.28,3.28,0,0,0-1.57.38,2.83,2.83,0,0,0-1.11,1.06,2.86,2.86,0,0,0-.4,1.48,2.63,2.63,0,0,0,.86,2,3,3,0,0,0,2.17.83,3.35,3.35,0,0,0,1.51-.33,2.55,2.55,0,0,0,1.06-.91l-.56-.37a2.42,2.42,0,0,1-2,1,2.53,2.53,0,0,1-1.2-.29,2.28,2.28,0,0,1-.84-.82,2.24,2.24,0,0,1-.3-1.12,2.11,2.11,0,0,1,.66-1.57A2.33,2.33,0,0,1,260.74,91.88Z"/><path class="bf19c77c-2adf-4e09-ae6e-8353d14edd94" d="M271.21,92.36a2.89,2.89,0,0,0-1-.86,2.65,2.65,0,0,0-1.23-.28,2.87,2.87,0,0,0-2.85,2.86,2.85,2.85,0,0,0,.83,2,2.82,2.82,0,0,0,3.21.57,2.94,2.94,0,0,0,1-.81v.94h.7V91.36h-.7ZM271,95.24a2.17,2.17,0,0,1-.8.79,2.3,2.3,0,0,1-1.11.29A2.19,2.19,0,0,1,268,96a2.28,2.28,0,0,1-1.1-1.93A2.27,2.27,0,0,1,268,92.19a2.23,2.23,0,0,1,2.65.34,2.34,2.34,0,0,1,.35,2.71Z"/><polygon class="bf19c77c-2adf-4e09-ae6e-8353d14edd94" points="281.96 95.57 280.06 91.36 279.32 91.36 281.58 96.41 280.52 98.83 281.27 98.83 284.55 91.36 283.8 91.36 281.96 95.57"/><path class="bf19c77c-2adf-4e09-ae6e-8353d14edd94" d="M294,90.4a3.55,3.55,0,0,1,3.15-.1,3.24,3.24,0,0,1,1.17,1l.59-.44a3.59,3.59,0,0,0-1.38-1.15,4.16,4.16,0,0,0-1.89-.41,4,4,0,0,0-2.87,1.11,3.62,3.62,0,0,0-1.15,2.73,3.82,3.82,0,0,0,4,3.92,4.37,4.37,0,0,0,1.87-.38,3.9,3.9,0,0,0,1.39-1.09l-.59-.44a3.33,3.33,0,0,1-2.62,1.21,3.26,3.26,0,0,1-2.36-.9,3,3,0,0,1-.93-2.26,3.14,3.14,0,0,1,.42-1.61A3,3,0,0,1,294,90.4Z"/><path class="bf19c77c-2adf-4e09-ae6e-8353d14edd94" d="M306.86,92.36a3,3,0,0,0-1-.86,2.65,2.65,0,0,0-1.23-.28,2.71,2.71,0,0,0-2,.84,2.75,2.75,0,0,0-.84,2,2.85,2.85,0,0,0,.83,2,2.82,2.82,0,0,0,3.21.57,3,3,0,0,0,1-.81v.94h.7V91.36h-.7Zm-.23,2.88a2.12,2.12,0,0,1-.81.79,2.23,2.23,0,0,1-1.1.29,2.14,2.14,0,0,1-1.88-1.11,2.23,2.23,0,0,1-.3-1.11,2.14,2.14,0,0,1,.3-1.1,2.05,2.05,0,0,1,.79-.81,2.23,2.23,0,0,1,2.65.34,2.19,2.19,0,0,1,.63,1.59A2.3,2.3,0,0,1,306.63,95.24Z"/><path class="bf19c77c-2adf-4e09-ae6e-8353d14edd94" d="M313.82,91.22a2.64,2.64,0,0,0-1.22.28,3,3,0,0,0-1,.86v-1h-.71v7.47h.71V95.89a2.94,2.94,0,0,0,1,.81,2.68,2.68,0,0,0,1.2.27,2.7,2.7,0,0,0,2-.84,2.85,2.85,0,0,0,.83-2,2.75,2.75,0,0,0-.84-2A2.71,2.71,0,0,0,313.82,91.22Zm1.83,4a2.17,2.17,0,0,1-.8.82,2.15,2.15,0,0,1-1.07.29,2.3,2.3,0,0,1-1.11-.29,2.09,2.09,0,0,1-.8-.79,2.34,2.34,0,0,1,.35-2.71,2.21,2.21,0,0,1,2.64-.34,2.05,2.05,0,0,1,.79.81,2.14,2.14,0,0,1,.3,1.1A2.23,2.23,0,0,1,315.65,95.21Z"/><rect class="bf19c77c-2adf-4e09-ae6e-8353d14edd94" x="319.65" y="91.36" width="0.71" height="5.47"/><path class="bf19c77c-2adf-4e09-ae6e-8353d14edd94" d="M320,89.11a.58.58,0,0,0-.58.58.54.54,0,0,0,.17.41.58.58,0,0,0,.82,0,.58.58,0,0,0,.17-.41.57.57,0,0,0-.17-.41A.53.53,0,0,0,320,89.11Z"/><rect class="bf19c77c-2adf-4e09-ae6e-8353d14edd94" x="323.49" y="89.25" width="0.71" height="7.58"/><path class="bf19c77c-2adf-4e09-ae6e-8353d14edd94" d="M332.23,92.36a2.79,2.79,0,0,0-1-.86,2.65,2.65,0,0,0-1.23-.28,2.87,2.87,0,0,0-2.85,2.86,2.85,2.85,0,0,0,.83,2,2.82,2.82,0,0,0,3.21.57,2.94,2.94,0,0,0,1-.81v.94h.7V91.36h-.7ZM332,95.24a2.17,2.17,0,0,1-.8.79,2.3,2.3,0,0,1-1.11.29A2.19,2.19,0,0,1,329,96a2.28,2.28,0,0,1-1.1-1.93,2.14,2.14,0,0,1,.3-1.1,2.08,2.08,0,0,1,.8-.81,2,2,0,0,1,1.09-.29,2.11,2.11,0,0,1,1.55.63,2.34,2.34,0,0,1,.35,2.71Z"/><path class="bf19c77c-2adf-4e09-ae6e-8353d14edd94" d="M337.43,91.45a2.45,2.45,0,0,0-.68.71v-.8H336v5.47h.73V95a8.42,8.42,0,0,1,.13-1.89,1.76,1.76,0,0,1,.5-.9,1.05,1.05,0,0,1,.69-.29.89.89,0,0,1,.37.1l.37-.6a1.32,1.32,0,0,0-.63-.18A1.4,1.4,0,0,0,337.43,91.45Z"/><rect class="bf19c77c-2adf-4e09-ae6e-8353d14edd94" x="152.86" y="44.01" width="187.09" height="2.24"/><path class="bf19c77c-2adf-4e09-ae6e-8353d14edd94" d="M210.42,102.31l3.86,8.26h-.9l-1.29-2.72h-3.56l-1.29,2.72h-.92l3.9-8.26Zm-.1,1.76-1.41,3h2.82Z"/><path class="bf19c77c-2adf-4e09-ae6e-8353d14edd94" d="M218,104.46h.84l2,4.46,2-4.46h.85l-2.8,6.11h-.15Z"/><path class="bf19c77c-2adf-4e09-ae6e-8353d14edd94" d="M234.25,104.46v6.11h-.77v-1a3.51,3.51,0,0,1-1.11.91,3,3,0,0,1-1.35.3,3,3,0,0,1-2.21-.94,3.17,3.17,0,0,1-.92-2.29,3.1,3.1,0,0,1,.93-2.26,3,3,0,0,1,2.23-.93,2.81,2.81,0,0,1,1.36.32,3.11,3.11,0,0,1,1.07,1v-1.13Zm-3.14.6a2.32,2.32,0,0,0-1.21.33,2.24,2.24,0,0,0-.88.9,2.52,2.52,0,0,0,.89,3.39,2.39,2.39,0,0,0,1.19.32,2.54,2.54,0,0,0,1.23-.32,2.35,2.35,0,0,0,.89-.88,2.6,2.6,0,0,0,.31-1.25,2.4,2.4,0,0,0-.7-1.77A2.31,2.31,0,0,0,231.11,105.06Z"/><path class="bf19c77c-2adf-4e09-ae6e-8353d14edd94" d="M239.2,104.46H240v1.1a3.15,3.15,0,0,1,1-.94,2.57,2.57,0,0,1,1.25-.31,2.2,2.2,0,0,1,1.22.34,2.17,2.17,0,0,1,.78.94,5,5,0,0,1,.25,1.84v3.14h-.78v-2.91a6.91,6.91,0,0,0-.09-1.41,1.5,1.5,0,0,0-.53-.91,1.52,1.52,0,0,0-1-.31,1.94,1.94,0,0,0-1.27.47,2.2,2.2,0,0,0-.75,1.17,8.54,8.54,0,0,0-.11,1.66v2.24h-.79Z"/><path class="bf19c77c-2adf-4e09-ae6e-8353d14edd94" d="M248.9,104.46h4.48l-3.45,5.41h3.34v.7h-4.7l3.46-5.42H248.9Z"/><path class="bf19c77c-2adf-4e09-ae6e-8353d14edd94" d="M263.55,104.46v6.11h-.77v-1a3.51,3.51,0,0,1-1.11.91,3,3,0,0,1-1.35.3,3,3,0,0,1-2.21-.94,3.17,3.17,0,0,1-.92-2.29,3.1,3.1,0,0,1,.93-2.26,3,3,0,0,1,2.23-.93,2.81,2.81,0,0,1,1.36.32,3.11,3.11,0,0,1,1.07,1v-1.13Zm-3.14.6a2.4,2.4,0,0,0-2.09,1.23,2.52,2.52,0,0,0,.89,3.39,2.4,2.4,0,0,0,1.2.32,2.53,2.53,0,0,0,1.22-.32,2.35,2.35,0,0,0,.89-.88,2.6,2.6,0,0,0,.31-1.25,2.4,2.4,0,0,0-.7-1.77A2.31,2.31,0,0,0,260.41,105.06Z"/><path class="bf19c77c-2adf-4e09-ae6e-8353d14edd94" d="M274.6,102.1v8.47h-.77v-1a3.51,3.51,0,0,1-1.11.91,3,3,0,0,1-1.35.3,3,3,0,0,1-2.21-.94,3.17,3.17,0,0,1-.92-2.29,3.1,3.1,0,0,1,.93-2.26,3,3,0,0,1,2.23-.93,2.81,2.81,0,0,1,1.36.32,3.11,3.11,0,0,1,1.07,1V102.1Zm-3.14,3a2.4,2.4,0,0,0-2.09,1.23,2.52,2.52,0,0,0,.89,3.39,2.4,2.4,0,0,0,1.2.32,2.56,2.56,0,0,0,1.22-.32,2.35,2.35,0,0,0,.89-.88,2.6,2.6,0,0,0,.31-1.25,2.44,2.44,0,0,0-.7-1.77A2.31,2.31,0,0,0,271.46,105.06Z"/><path class="bf19c77c-2adf-4e09-ae6e-8353d14edd94" d="M285.65,104.46v6.11h-.77v-1a3.51,3.51,0,0,1-1.11.91,3,3,0,0,1-1.35.3,3,3,0,0,1-2.21-.94,3.17,3.17,0,0,1-.92-2.29,3.1,3.1,0,0,1,.93-2.26,3,3,0,0,1,2.23-.93,2.81,2.81,0,0,1,1.36.32,3.11,3.11,0,0,1,1.07,1v-1.13Zm-3.14.6a2.32,2.32,0,0,0-1.21.33,2.24,2.24,0,0,0-.88.9,2.48,2.48,0,0,0,0,2.47A2.36,2.36,0,0,0,282.5,110a2.56,2.56,0,0,0,1.23-.32,2.35,2.35,0,0,0,.89-.88,2.6,2.6,0,0,0,.31-1.25,2.44,2.44,0,0,0-.7-1.77A2.31,2.31,0,0,0,282.51,105.06Z"/><rect class="bf19c77c-2adf-4e09-ae6e-8353d14edd94" x="153.52" y="106.22" width="51.19" height="0.61"/><rect class="bf19c77c-2adf-4e09-ae6e-8353d14edd94" x="289.04" y="106.54" width="51.13" height="0.61"/></svg>